<?xml version="1.0" encoding="UTF-8"?>
<svg xmlns="http://www.w3.org/2000/svg" xmlns:xlink="http://www.w3.org/1999/xlink" width="756pt" height="360pt" viewBox="0 0 756 360">
<defs>
<g>
<g id="glyph-0-0">
<path d="M 3.222656 -0.761719 L 3.222656 0.890625 C 3.222656 1.941406 3.09375 3.085938 2.832031 4.316406 L 1.179688 4.316406 C 1.359375 3.507812 1.460938 2.960938 1.492188 2.664062 C 1.578125 1.753906 1.621094 1.085938 1.621094 0.664062 L 1.621094 -9.316406 C 1.621094 -10.480469 1.738281 -11.347656 1.96875 -11.910156 C 2.199219 -12.472656 2.617188 -12.941406 3.21875 -13.320312 C 3.820312 -13.699219 4.539062 -13.886719 5.382812 -13.886719 C 6.546875 -13.886719 7.476562 -13.574219 8.171875 -12.949219 C 8.871094 -12.324219 9.21875 -11.582031 9.21875 -10.722656 C 9.21875 -10.167969 9.078125 -9.644531 8.792969 -9.144531 C 8.511719 -8.648438 8.074219 -8.214844 7.480469 -7.851562 C 9.226562 -7.019531 10.097656 -5.722656 10.097656 -3.964844 C 10.097656 -3.183594 9.914062 -2.453125 9.550781 -1.777344 C 9.1875 -1.101562 8.683594 -0.585938 8.046875 -0.230469 C 7.410156 0.125 6.75 0.304688 6.074219 0.304688 C 5.636719 0.304688 5.207031 0.226562 4.78125 0.078125 C 4.355469 -0.0703125 3.835938 -0.351562 3.222656 -0.761719 M 3.222656 -1.53125 C 3.855469 -1.089844 4.40625 -0.773438 4.875 -0.578125 C 5.226562 -0.433594 5.578125 -0.359375 5.929688 -0.359375 C 6.585938 -0.359375 7.136719 -0.632812 7.582031 -1.175781 C 8.027344 -1.71875 8.25 -2.582031 8.25 -3.757812 C 8.25 -4.5 8.144531 -5.152344 7.933594 -5.707031 C 7.722656 -6.265625 7.351562 -6.875 6.816406 -7.539062 C 6.367188 -7.390625 5.980469 -7.3125 5.65625 -7.3125 C 5.265625 -7.3125 4.988281 -7.375 4.828125 -7.492188 C 4.667969 -7.609375 4.589844 -7.734375 4.589844 -7.871094 C 4.589844 -7.996094 4.652344 -8.105469 4.773438 -8.203125 C 4.898438 -8.300781 5.097656 -8.347656 5.371094 -8.351562 C 5.691406 -8.347656 6.171875 -8.265625 6.816406 -8.09375 C 7.273438 -9 7.5 -9.855469 7.5 -10.664062 C 7.5 -11.484375 7.296875 -12.117188 6.894531 -12.570312 C 6.492188 -13.015625 5.988281 -13.242188 5.390625 -13.242188 C 4.636719 -13.242188 4.050781 -12.921875 3.632812 -12.285156 C 3.359375 -11.863281 3.222656 -11.179688 3.222656 -10.242188 Z M 3.222656 -1.53125 "/>
</g>
</g>
<clipPath id="clip-0">
<path clip-rule="nonzero" d="M 5.480469 317 L 750.523438 317 L 750.523438 319 L 5.480469 319 Z M 5.480469 317 "/>
</clipPath>
<clipPath id="clip-1">
<path clip-rule="nonzero" d="M 376 5.480469 L 380 5.480469 L 380 332.621094 L 376 332.621094 Z M 376 5.480469 "/>
</clipPath>
</defs>
<rect x="-75.6" y="-36" width="907.2" height="432" fill="rgb(100%, 100%, 100%)" fill-opacity="1"/>
<path fill-rule="nonzero" fill="rgb(90.196078%, 25.490196%, 45.098039%)" fill-opacity="0.901961" d="M 39.34375 317.75 L 155.84375 317.75 L 156.292969 317.746094 L 167.128906 317.746094 L 167.582031 317.742188 L 172.550781 317.742188 L 173 317.738281 L 175.710938 317.738281 L 176.160156 317.734375 L 178.417969 317.734375 L 178.871094 317.730469 L 180.675781 317.730469 L 181.128906 317.726562 L 182.03125 317.726562 L 182.484375 317.722656 L 183.835938 317.722656 L 184.289062 317.71875 L 185.191406 317.71875 L 185.644531 317.714844 L 186.09375 317.714844 L 186.546875 317.710938 L 187.449219 317.710938 L 187.902344 317.707031 L 188.351562 317.707031 L 188.804688 317.703125 L 189.257812 317.703125 L 189.707031 317.699219 L 190.160156 317.699219 L 190.609375 317.695312 L 191.0625 317.691406 L 191.515625 317.691406 L 191.964844 317.6875 L 192.417969 317.6875 L 192.867188 317.683594 L 193.773438 317.675781 L 194.222656 317.675781 L 194.675781 317.671875 L 195.125 317.667969 L 196.03125 317.660156 L 196.480469 317.65625 L 196.933594 317.652344 L 197.382812 317.648438 L 197.835938 317.644531 L 198.285156 317.640625 L 199.191406 317.632812 L 199.640625 317.628906 L 200.09375 317.625 L 200.542969 317.617188 L 200.996094 317.613281 L 201.449219 317.605469 L 201.898438 317.601562 L 202.351562 317.597656 L 202.800781 317.589844 L 203.253906 317.582031 L 203.707031 317.578125 L 204.15625 317.570312 L 204.609375 317.5625 L 205.058594 317.554688 L 205.964844 317.539062 L 206.414062 317.53125 L 206.867188 317.523438 L 207.316406 317.515625 L 207.769531 317.507812 L 208.222656 317.496094 L 208.671875 317.488281 L 209.125 317.476562 L 209.574219 317.464844 L 210.027344 317.457031 L 210.480469 317.445312 L 210.929688 317.433594 L 211.382812 317.421875 L 211.832031 317.410156 L 212.285156 317.394531 L 212.738281 317.382812 L 213.1875 317.371094 L 213.640625 317.355469 L 214.089844 317.339844 L 214.542969 317.324219 L 214.992188 317.308594 L 215.898438 317.277344 L 216.347656 317.257812 L 216.800781 317.242188 L 217.25 317.222656 L 218.15625 317.183594 L 218.605469 317.164062 L 219.058594 317.144531 L 219.507812 317.121094 L 220.414062 317.074219 L 220.863281 317.050781 L 221.316406 317.027344 L 221.765625 317.003906 L 222.671875 316.949219 L 223.121094 316.921875 L 223.574219 316.890625 L 224.023438 316.863281 L 224.929688 316.800781 L 225.378906 316.765625 L 225.832031 316.734375 L 226.28125 316.699219 L 226.734375 316.664062 L 227.1875 316.625 L 227.636719 316.585938 L 228.089844 316.546875 L 228.539062 316.507812 L 228.992188 316.464844 L 229.441406 316.421875 L 229.894531 316.378906 L 230.347656 316.332031 L 230.796875 316.285156 L 231.25 316.238281 L 231.699219 316.1875 L 232.152344 316.136719 L 232.605469 316.082031 L 233.054688 316.027344 L 233.507812 315.972656 L 233.957031 315.914062 L 234.410156 315.855469 L 234.863281 315.792969 L 235.3125 315.730469 L 235.765625 315.667969 L 236.214844 315.601562 L 237.121094 315.460938 L 237.570312 315.390625 L 238.023438 315.3125 L 238.472656 315.238281 L 238.925781 315.160156 L 239.378906 315.078125 L 239.828125 314.996094 L 240.28125 314.910156 L 240.730469 314.820312 L 241.636719 314.640625 L 242.085938 314.542969 L 242.539062 314.445312 L 242.988281 314.34375 L 243.441406 314.242188 L 243.894531 314.136719 L 244.34375 314.027344 L 244.796875 313.917969 L 245.246094 313.800781 L 245.699219 313.683594 L 246.148438 313.5625 L 247.054688 313.3125 L 247.503906 313.183594 L 247.957031 313.046875 L 248.40625 312.910156 L 248.859375 312.769531 L 249.3125 312.625 L 249.761719 312.476562 L 250.214844 312.328125 L 250.664062 312.171875 L 251.117188 312.011719 L 251.570312 311.847656 L 252.019531 311.683594 L 252.472656 311.511719 L 252.921875 311.335938 L 253.375 311.15625 L 253.828125 310.972656 L 254.277344 310.78125 L 254.730469 310.589844 L 255.179688 310.390625 L 255.632812 310.1875 L 256.085938 309.980469 L 256.535156 309.769531 L 256.988281 309.550781 L 257.4375 309.328125 L 257.890625 309.101562 L 258.34375 308.871094 L 258.792969 308.632812 L 259.246094 308.386719 L 259.695312 308.140625 L 260.148438 307.882812 L 260.597656 307.625 L 261.050781 307.359375 L 261.503906 307.085938 L 261.953125 306.808594 L 262.40625 306.523438 L 262.855469 306.234375 L 263.308594 305.9375 L 263.761719 305.632812 L 264.210938 305.324219 L 264.664062 305.007812 L 265.113281 304.683594 L 265.566406 304.351562 L 266.019531 304.015625 L 266.46875 303.671875 L 266.921875 303.320312 L 267.371094 302.960938 L 267.824219 302.59375 L 268.277344 302.222656 L 268.726562 301.839844 L 269.179688 301.453125 L 269.628906 301.054688 L 270.082031 300.652344 L 270.535156 300.238281 L 270.984375 299.816406 L 271.4375 299.386719 L 271.886719 298.949219 L 272.339844 298.503906 L 272.792969 298.050781 L 273.242188 297.585938 L 273.695312 297.113281 L 274.144531 296.632812 L 274.597656 296.140625 L 275.050781 295.644531 L 275.5 295.132812 L 275.953125 294.617188 L 276.402344 294.089844 L 276.855469 293.550781 L 277.304688 293.003906 L 277.757812 292.449219 L 278.210938 291.882812 L 278.660156 291.304688 L 279.113281 290.71875 L 279.5625 290.121094 L 280.015625 289.511719 L 280.46875 288.894531 L 280.917969 288.265625 L 281.371094 287.628906 L 281.820312 286.976562 L 282.273438 286.316406 L 282.726562 285.644531 L 283.175781 284.960938 L 283.628906 284.265625 L 284.078125 283.5625 L 284.53125 282.84375 L 284.984375 282.117188 L 285.433594 281.375 L 285.886719 280.625 L 286.335938 279.863281 L 286.789062 279.085938 L 287.242188 278.300781 L 287.691406 277.5 L 288.144531 276.691406 L 288.59375 275.867188 L 289.046875 275.03125 L 289.5 274.183594 L 289.949219 273.324219 L 290.402344 272.449219 L 290.851562 271.566406 L 291.304688 270.667969 L 291.753906 269.757812 L 292.207031 268.835938 L 292.660156 267.898438 L 293.109375 266.949219 L 293.5625 265.988281 L 294.011719 265.015625 L 294.464844 264.027344 L 294.917969 263.027344 L 295.367188 262.011719 L 295.820312 260.988281 L 296.269531 259.949219 L 296.722656 258.894531 L 297.175781 257.828125 L 297.625 256.75 L 298.078125 255.65625 L 298.527344 254.550781 L 298.980469 253.433594 L 299.433594 252.300781 L 299.882812 251.15625 L 300.335938 249.996094 L 300.785156 248.824219 L 301.238281 247.640625 L 301.691406 246.441406 L 302.140625 245.230469 L 302.59375 244.003906 L 303.042969 242.765625 L 303.496094 241.515625 L 303.949219 240.25 L 304.398438 238.972656 L 304.851562 237.679688 L 305.300781 236.378906 L 305.753906 235.0625 L 306.207031 233.730469 L 306.65625 232.390625 L 307.109375 231.035156 L 307.558594 229.667969 L 308.011719 228.285156 L 308.460938 226.894531 L 308.914062 225.488281 L 309.367188 224.070312 L 309.816406 222.640625 L 310.269531 221.199219 L 310.71875 219.742188 L 311.171875 218.277344 L 311.625 216.800781 L 312.074219 215.308594 L 312.527344 213.808594 L 312.976562 212.296875 L 313.429688 210.769531 L 313.882812 209.234375 L 314.332031 207.6875 L 314.785156 206.132812 L 315.234375 204.5625 L 315.6875 202.984375 L 316.140625 201.398438 L 316.589844 199.796875 L 317.042969 198.1875 L 317.492188 196.570312 L 317.945312 194.941406 L 318.398438 193.304688 L 318.847656 191.65625 L 319.300781 190 L 319.75 188.335938 L 320.203125 186.660156 L 320.65625 184.976562 L 321.105469 183.289062 L 321.558594 181.589844 L 322.007812 179.882812 L 322.460938 178.171875 L 322.914062 176.449219 L 323.363281 174.722656 L 323.816406 172.988281 L 324.265625 171.25 L 324.71875 169.503906 L 325.167969 167.75 L 325.621094 165.992188 L 326.074219 164.230469 L 326.523438 162.460938 L 326.976562 160.691406 L 327.425781 158.914062 L 327.878906 157.132812 L 328.332031 155.347656 L 328.78125 153.558594 L 329.234375 151.769531 L 329.683594 149.972656 L 330.589844 146.378906 L 331.039062 144.578125 L 331.492188 142.777344 L 331.941406 140.972656 L 332.394531 139.171875 L 332.847656 137.367188 L 333.296875 135.5625 L 333.75 133.761719 L 334.199219 131.957031 L 335.105469 128.355469 L 335.554688 126.558594 L 336.007812 124.761719 L 336.457031 122.96875 L 336.910156 121.175781 L 337.363281 119.390625 L 337.8125 117.605469 L 338.265625 115.828125 L 338.714844 114.054688 L 339.167969 112.285156 L 339.617188 110.519531 L 340.070312 108.761719 L 340.523438 107.007812 L 340.972656 105.261719 L 341.425781 103.523438 L 341.875 101.792969 L 342.328125 100.070312 L 342.78125 98.355469 L 343.230469 96.648438 L 343.683594 94.949219 L 344.132812 93.261719 L 344.585938 91.582031 L 345.039062 89.914062 L 345.488281 88.253906 L 345.941406 86.609375 L 346.390625 84.972656 L 346.84375 83.351562 L 347.296875 81.738281 L 347.746094 80.140625 L 348.199219 78.554688 L 348.648438 76.984375 L 349.101562 75.425781 L 349.554688 73.882812 L 350.003906 72.351562 L 350.457031 70.839844 L 350.90625 69.339844 L 351.359375 67.859375 L 351.8125 66.390625 L 352.261719 64.941406 L 352.714844 63.507812 L 353.164062 62.09375 L 353.617188 60.699219 L 354.070312 59.320312 L 354.519531 57.957031 L 354.972656 56.617188 L 355.421875 55.296875 L 355.875 53.992188 L 356.324219 52.710938 L 356.777344 51.449219 L 357.230469 50.207031 L 357.679688 48.988281 L 358.132812 47.789062 L 358.582031 46.613281 L 359.035156 45.457031 L 359.488281 44.324219 L 359.9375 43.214844 L 360.390625 42.128906 L 360.839844 41.066406 L 361.292969 40.027344 L 361.746094 39.011719 L 362.195312 38.019531 L 362.648438 37.050781 L 363.097656 36.109375 L 363.550781 35.191406 L 364.003906 34.300781 L 364.453125 33.4375 L 364.90625 32.597656 L 365.355469 31.78125 L 365.808594 30.996094 L 366.261719 30.234375 L 366.710938 29.5 L 367.164062 28.792969 L 367.613281 28.113281 L 368.066406 27.460938 L 368.519531 26.835938 L 368.96875 26.238281 L 369.421875 25.667969 L 369.871094 25.128906 L 370.324219 24.617188 L 370.773438 24.132812 L 371.226562 23.675781 L 371.679688 23.25 L 372.128906 22.851562 L 372.582031 22.484375 L 373.03125 22.144531 L 373.484375 21.832031 L 373.9375 21.550781 L 374.386719 21.300781 L 374.839844 21.078125 L 375.289062 20.882812 L 375.742188 20.722656 L 376.195312 20.585938 L 376.644531 20.484375 L 377.097656 20.410156 L 377.546875 20.363281 L 378 20.347656 L 378.453125 20.363281 L 378.902344 20.410156 L 379.355469 20.484375 L 379.804688 20.585938 L 380.257812 20.722656 L 380.710938 20.882812 L 381.160156 21.078125 L 381.613281 21.300781 L 382.0625 21.550781 L 382.515625 21.832031 L 382.96875 22.144531 L 383.417969 22.484375 L 383.871094 22.851562 L 384.320312 23.25 L 384.773438 23.675781 L 385.226562 24.132812 L 385.675781 24.617188 L 386.128906 25.128906 L 386.578125 25.667969 L 387.03125 26.238281 L 387.480469 26.835938 L 387.933594 27.460938 L 388.386719 28.113281 L 388.835938 28.792969 L 389.289062 29.5 L 389.738281 30.234375 L 390.191406 30.996094 L 390.644531 31.78125 L 391.09375 32.597656 L 391.546875 33.4375 L 391.996094 34.300781 L 392.449219 35.191406 L 392.902344 36.109375 L 393.351562 37.050781 L 393.804688 38.019531 L 394.253906 39.011719 L 394.707031 40.027344 L 395.160156 41.066406 L 395.609375 42.128906 L 396.0625 43.214844 L 396.511719 44.324219 L 396.964844 45.457031 L 397.417969 46.613281 L 397.867188 47.789062 L 398.320312 48.988281 L 398.769531 50.207031 L 399.222656 51.449219 L 399.675781 52.710938 L 400.125 53.992188 L 400.578125 55.296875 L 401.027344 56.617188 L 401.480469 57.957031 L 401.929688 59.320312 L 402.382812 60.699219 L 402.835938 62.09375 L 403.285156 63.507812 L 403.738281 64.941406 L 404.1875 66.390625 L 404.640625 67.859375 L 405.09375 69.339844 L 405.542969 70.839844 L 405.996094 72.351562 L 406.445312 73.882812 L 406.898438 75.425781 L 407.351562 76.984375 L 407.800781 78.554688 L 408.253906 80.140625 L 408.703125 81.738281 L 409.15625 83.351562 L 409.609375 84.972656 L 410.058594 86.609375 L 410.511719 88.253906 L 410.960938 89.914062 L 411.414062 91.582031 L 411.867188 93.261719 L 412.316406 94.949219 L 412.769531 96.648438 L 413.21875 98.355469 L 413.671875 100.070312 L 414.125 101.792969 L 414.574219 103.523438 L 415.027344 105.261719 L 415.476562 107.007812 L 415.929688 108.761719 L 416.382812 110.519531 L 416.832031 112.285156 L 417.285156 114.054688 L 417.734375 115.828125 L 418.1875 117.605469 L 418.636719 119.390625 L 419.089844 121.175781 L 419.542969 122.96875 L 419.992188 124.761719 L 420.445312 126.558594 L 420.894531 128.355469 L 421.800781 131.957031 L 422.25 133.761719 L 422.703125 135.5625 L 423.152344 137.367188 L 423.605469 139.171875 L 424.058594 140.972656 L 424.507812 142.777344 L 424.960938 144.578125 L 425.410156 146.378906 L 426.316406 149.972656 L 426.765625 151.769531 L 427.21875 153.558594 L 427.667969 155.347656 L 428.121094 157.132812 L 428.574219 158.914062 L 429.023438 160.691406 L 429.476562 162.460938 L 429.925781 164.230469 L 430.378906 165.992188 L 430.832031 167.75 L 431.28125 169.503906 L 431.734375 171.25 L 432.183594 172.988281 L 432.636719 174.722656 L 433.085938 176.449219 L 433.539062 178.171875 L 433.992188 179.882812 L 434.441406 181.589844 L 434.894531 183.289062 L 435.34375 184.976562 L 435.796875 186.660156 L 436.25 188.335938 L 436.699219 190 L 437.152344 191.65625 L 437.601562 193.304688 L 438.054688 194.941406 L 438.507812 196.570312 L 438.957031 198.1875 L 439.410156 199.796875 L 439.859375 201.398438 L 440.3125 202.984375 L 440.765625 204.5625 L 441.214844 206.132812 L 441.667969 207.6875 L 442.117188 209.234375 L 442.570312 210.769531 L 443.023438 212.296875 L 443.472656 213.808594 L 443.925781 215.308594 L 444.375 216.800781 L 444.828125 218.277344 L 445.28125 219.742188 L 445.730469 221.199219 L 446.183594 222.640625 L 446.632812 224.070312 L 447.085938 225.488281 L 447.539062 226.894531 L 447.988281 228.285156 L 448.441406 229.667969 L 448.890625 231.035156 L 449.34375 232.390625 L 449.792969 233.730469 L 450.246094 235.0625 L 450.699219 236.378906 L 451.148438 237.679688 L 451.601562 238.972656 L 452.050781 240.25 L 452.503906 241.515625 L 452.957031 242.765625 L 453.40625 244.003906 L 453.859375 245.230469 L 454.308594 246.441406 L 454.761719 247.640625 L 455.214844 248.824219 L 455.664062 249.996094 L 456.117188 251.15625 L 456.566406 252.300781 L 457.019531 253.433594 L 457.472656 254.550781 L 457.921875 255.65625 L 458.375 256.75 L 458.824219 257.828125 L 459.277344 258.894531 L 459.730469 259.949219 L 460.179688 260.988281 L 460.632812 262.011719 L 461.082031 263.027344 L 461.535156 264.027344 L 461.988281 265.015625 L 462.4375 265.988281 L 462.890625 266.949219 L 463.339844 267.898438 L 463.792969 268.835938 L 464.246094 269.757812 L 464.695312 270.667969 L 465.148438 271.566406 L 465.597656 272.449219 L 466.050781 273.324219 L 466.5 274.183594 L 466.953125 275.03125 L 467.40625 275.867188 L 467.855469 276.691406 L 468.308594 277.5 L 468.757812 278.300781 L 469.210938 279.085938 L 469.664062 279.863281 L 470.113281 280.625 L 470.566406 281.375 L 471.015625 282.117188 L 471.46875 282.84375 L 471.921875 283.5625 L 472.371094 284.265625 L 472.824219 284.960938 L 473.273438 285.644531 L 473.726562 286.316406 L 474.179688 286.976562 L 474.628906 287.628906 L 475.082031 288.265625 L 475.53125 288.894531 L 475.984375 289.511719 L 476.4375 290.121094 L 476.886719 290.71875 L 477.339844 291.304688 L 477.789062 291.882812 L 478.242188 292.449219 L 478.695312 293.003906 L 479.144531 293.550781 L 479.597656 294.089844 L 480.046875 294.617188 L 480.5 295.132812 L 480.949219 295.644531 L 481.402344 296.140625 L 481.855469 296.632812 L 482.304688 297.113281 L 482.757812 297.585938 L 483.207031 298.050781 L 483.660156 298.503906 L 484.113281 298.949219 L 484.5625 299.386719 L 485.015625 299.816406 L 485.464844 300.238281 L 485.917969 300.652344 L 486.371094 301.054688 L 486.820312 301.453125 L 487.273438 301.839844 L 487.722656 302.222656 L 488.175781 302.59375 L 488.628906 302.960938 L 489.078125 303.320312 L 489.53125 303.671875 L 489.980469 304.015625 L 490.433594 304.351562 L 490.886719 304.683594 L 491.335938 305.007812 L 491.789062 305.324219 L 492.238281 305.632812 L 492.691406 305.9375 L 493.144531 306.234375 L 493.59375 306.523438 L 494.046875 306.808594 L 494.496094 307.085938 L 494.949219 307.359375 L 495.402344 307.625 L 495.851562 307.882812 L 496.304688 308.140625 L 496.753906 308.386719 L 497.207031 308.632812 L 497.65625 308.871094 L 498.109375 309.101562 L 498.5625 309.328125 L 499.011719 309.550781 L 499.464844 309.769531 L 499.914062 309.980469 L 500.367188 310.1875 L 500.820312 310.390625 L 501.269531 310.589844 L 501.722656 310.78125 L 502.171875 310.972656 L 502.625 311.15625 L 503.078125 311.335938 L 503.527344 311.511719 L 503.980469 311.683594 L 504.429688 311.847656 L 504.882812 312.011719 L 505.335938 312.171875 L 505.785156 312.328125 L 506.238281 312.476562 L 506.6875 312.625 L 507.140625 312.769531 L 507.59375 312.910156 L 508.042969 313.046875 L 508.496094 313.183594 L 508.945312 313.3125 L 509.851562 313.5625 L 510.300781 313.683594 L 510.753906 313.800781 L 511.203125 313.917969 L 511.65625 314.027344 L 512.105469 314.136719 L 512.558594 314.242188 L 513.011719 314.34375 L 513.460938 314.445312 L 513.914062 314.542969 L 514.363281 314.640625 L 515.269531 314.820312 L 515.71875 314.910156 L 516.171875 314.996094 L 516.621094 315.078125 L 517.074219 315.160156 L 517.527344 315.238281 L 517.976562 315.3125 L 518.429688 315.390625 L 518.878906 315.460938 L 519.785156 315.601562 L 520.234375 315.667969 L 520.6875 315.730469 L 521.136719 315.792969 L 521.589844 315.855469 L 522.042969 315.914062 L 522.492188 315.972656 L 522.945312 316.027344 L 523.394531 316.082031 L 523.847656 316.136719 L 524.300781 316.1875 L 524.75 316.238281 L 525.203125 316.285156 L 525.652344 316.332031 L 526.105469 316.378906 L 526.558594 316.421875 L 527.007812 316.464844 L 527.460938 316.507812 L 527.910156 316.546875 L 528.363281 316.585938 L 528.8125 316.625 L 529.265625 316.664062 L 529.71875 316.699219 L 530.167969 316.734375 L 530.621094 316.765625 L 531.070312 316.800781 L 531.976562 316.863281 L 532.425781 316.890625 L 532.878906 316.921875 L 533.328125 316.949219 L 534.234375 317.003906 L 534.683594 317.027344 L 535.136719 317.050781 L 535.585938 317.074219 L 536.492188 317.121094 L 536.941406 317.144531 L 537.394531 317.164062 L 537.84375 317.183594 L 538.75 317.222656 L 539.199219 317.242188 L 539.652344 317.257812 L 540.101562 317.277344 L 541.007812 317.308594 L 541.457031 317.324219 L 541.910156 317.339844 L 542.359375 317.355469 L 542.8125 317.371094 L 543.261719 317.382812 L 543.714844 317.394531 L 544.167969 317.410156 L 544.617188 317.421875 L 545.070312 317.433594 L 545.519531 317.445312 L 545.972656 317.457031 L 546.425781 317.464844 L 546.875 317.476562 L 547.328125 317.488281 L 547.777344 317.496094 L 548.230469 317.507812 L 548.683594 317.515625 L 549.132812 317.523438 L 549.585938 317.53125 L 550.035156 317.539062 L 550.941406 317.554688 L 551.390625 317.5625 L 551.84375 317.570312 L 552.292969 317.578125 L 552.746094 317.582031 L 553.199219 317.589844 L 553.648438 317.597656 L 554.101562 317.601562 L 554.550781 317.605469 L 555.003906 317.613281 L 555.457031 317.617188 L 555.90625 317.625 L 556.359375 317.628906 L 556.808594 317.632812 L 557.714844 317.640625 L 558.164062 317.644531 L 558.617188 317.648438 L 559.066406 317.652344 L 559.519531 317.65625 L 559.96875 317.660156 L 560.875 317.667969 L 561.324219 317.671875 L 561.777344 317.675781 L 562.226562 317.675781 L 563.132812 317.683594 L 563.582031 317.6875 L 564.035156 317.6875 L 564.484375 317.691406 L 564.9375 317.691406 L 565.390625 317.695312 L 565.839844 317.699219 L 566.292969 317.699219 L 566.742188 317.703125 L 567.195312 317.703125 L 567.648438 317.707031 L 568.097656 317.707031 L 568.550781 317.710938 L 569.453125 317.710938 L 569.90625 317.714844 L 570.355469 317.714844 L 570.808594 317.71875 L 571.710938 317.71875 L 572.164062 317.722656 L 573.515625 317.722656 L 573.96875 317.726562 L 574.871094 317.726562 L 575.324219 317.730469 L 577.128906 317.730469 L 577.582031 317.734375 L 579.839844 317.734375 L 580.289062 317.738281 L 583 317.738281 L 583.449219 317.742188 L 588.417969 317.742188 L 588.871094 317.746094 L 599.707031 317.746094 L 600.15625 317.75 L 716.65625 317.75 Z M 39.34375 317.75 "/>
<path fill-rule="nonzero" fill="rgb(18.431373%, 30.980392%, 30.980392%)" fill-opacity="0.8" d="M 39.34375 317.617188 L 39.796875 317.617188 L 40.246094 317.613281 L 40.699219 317.609375 L 41.152344 317.609375 L 41.601562 317.605469 L 42.054688 317.601562 L 42.503906 317.601562 L 43.410156 317.59375 L 43.859375 317.589844 L 44.3125 317.589844 L 44.761719 317.585938 L 45.667969 317.578125 L 46.117188 317.574219 L 46.570312 317.574219 L 47.019531 317.570312 L 47.925781 317.5625 L 48.375 317.558594 L 48.828125 317.554688 L 49.277344 317.550781 L 49.730469 317.546875 L 50.183594 317.546875 L 50.632812 317.542969 L 51.085938 317.539062 L 51.535156 317.535156 L 52.441406 317.527344 L 52.890625 317.523438 L 53.34375 317.515625 L 53.792969 317.511719 L 54.699219 317.503906 L 55.148438 317.5 L 55.601562 317.496094 L 56.050781 317.492188 L 56.503906 317.488281 L 56.953125 317.480469 L 57.859375 317.472656 L 58.308594 317.46875 L 58.761719 317.460938 L 59.210938 317.457031 L 59.664062 317.453125 L 60.117188 317.445312 L 60.566406 317.441406 L 61.019531 317.4375 L 61.46875 317.429688 L 61.921875 317.425781 L 62.375 317.417969 L 62.824219 317.414062 L 63.277344 317.40625 L 63.726562 317.402344 L 64.632812 317.386719 L 65.082031 317.382812 L 65.535156 317.375 L 65.984375 317.371094 L 66.890625 317.355469 L 67.339844 317.347656 L 67.792969 317.34375 L 68.242188 317.335938 L 69.148438 317.320312 L 69.597656 317.3125 L 70.050781 317.304688 L 70.5 317.296875 L 71.40625 317.28125 L 71.855469 317.273438 L 72.308594 317.265625 L 72.757812 317.257812 L 73.210938 317.25 L 73.660156 317.242188 L 74.113281 317.234375 L 74.566406 317.222656 L 75.015625 317.214844 L 75.46875 317.207031 L 75.917969 317.195312 L 76.824219 317.179688 L 77.273438 317.167969 L 77.726562 317.160156 L 78.175781 317.148438 L 78.628906 317.140625 L 79.082031 317.128906 L 79.53125 317.117188 L 79.984375 317.109375 L 80.433594 317.097656 L 81.339844 317.074219 L 81.789062 317.0625 L 82.242188 317.050781 L 82.691406 317.042969 L 83.597656 317.019531 L 84.046875 317.003906 L 84.5 316.992188 L 84.949219 316.980469 L 85.855469 316.957031 L 86.304688 316.941406 L 86.757812 316.929688 L 87.207031 316.917969 L 87.660156 316.902344 L 88.109375 316.890625 L 89.015625 316.859375 L 89.464844 316.847656 L 89.917969 316.832031 L 90.367188 316.816406 L 90.820312 316.800781 L 91.273438 316.789062 L 91.722656 316.773438 L 92.175781 316.757812 L 92.625 316.742188 L 93.078125 316.722656 L 93.53125 316.707031 L 93.980469 316.691406 L 94.433594 316.675781 L 94.882812 316.65625 L 95.789062 316.625 L 96.238281 316.605469 L 96.691406 316.585938 L 97.140625 316.570312 L 98.046875 316.53125 L 98.496094 316.511719 L 98.949219 316.492188 L 99.398438 316.472656 L 100.304688 316.433594 L 100.753906 316.414062 L 101.207031 316.394531 L 101.65625 316.371094 L 102.109375 316.351562 L 102.5625 316.328125 L 103.011719 316.308594 L 103.464844 316.285156 L 103.914062 316.261719 L 104.367188 316.242188 L 104.816406 316.21875 L 105.722656 316.171875 L 106.171875 316.148438 L 106.625 316.121094 L 107.074219 316.097656 L 107.527344 316.074219 L 107.980469 316.046875 L 108.429688 316.023438 L 108.882812 315.996094 L 109.332031 315.96875 L 109.785156 315.941406 L 110.238281 315.917969 L 110.6875 315.890625 L 111.140625 315.859375 L 111.589844 315.832031 L 112.496094 315.777344 L 112.945312 315.746094 L 113.398438 315.71875 L 113.847656 315.6875 L 114.753906 315.625 L 115.203125 315.59375 L 115.65625 315.5625 L 116.105469 315.53125 L 116.558594 315.5 L 117.011719 315.464844 L 117.460938 315.433594 L 117.914062 315.398438 L 118.363281 315.363281 L 118.816406 315.332031 L 119.265625 315.296875 L 119.71875 315.261719 L 120.171875 315.222656 L 120.621094 315.1875 L 121.074219 315.152344 L 121.523438 315.113281 L 121.976562 315.078125 L 122.429688 315.039062 L 122.878906 315 L 123.332031 314.960938 L 123.78125 314.921875 L 124.234375 314.882812 L 124.6875 314.839844 L 125.136719 314.800781 L 125.589844 314.757812 L 126.039062 314.714844 L 126.945312 314.628906 L 127.394531 314.585938 L 127.847656 314.542969 L 128.296875 314.496094 L 128.75 314.453125 L 129.203125 314.40625 L 129.652344 314.359375 L 130.105469 314.3125 L 130.554688 314.265625 L 131.007812 314.21875 L 131.460938 314.167969 L 131.910156 314.121094 L 132.363281 314.070312 L 132.8125 314.019531 L 133.71875 313.917969 L 134.167969 313.867188 L 134.621094 313.8125 L 135.070312 313.757812 L 135.523438 313.707031 L 135.972656 313.652344 L 136.425781 313.59375 L 136.878906 313.539062 L 137.328125 313.484375 L 137.78125 313.425781 L 138.230469 313.367188 L 139.136719 313.25 L 139.585938 313.191406 L 140.039062 313.128906 L 140.488281 313.070312 L 141.394531 312.945312 L 141.84375 312.882812 L 142.296875 312.816406 L 142.746094 312.753906 L 143.652344 312.621094 L 144.101562 312.554688 L 144.554688 312.484375 L 145.003906 312.417969 L 145.910156 312.277344 L 146.359375 312.207031 L 146.8125 312.136719 L 147.261719 312.0625 L 147.714844 311.992188 L 148.167969 311.917969 L 148.617188 311.84375 L 149.070312 311.765625 L 149.519531 311.691406 L 149.972656 311.613281 L 150.421875 311.535156 L 151.328125 311.378906 L 151.777344 311.296875 L 152.230469 311.214844 L 152.679688 311.132812 L 153.585938 310.96875 L 154.035156 310.882812 L 154.488281 310.796875 L 154.9375 310.710938 L 155.390625 310.625 L 155.84375 310.535156 L 156.292969 310.445312 L 156.746094 310.355469 L 157.195312 310.265625 L 158.101562 310.078125 L 158.550781 309.984375 L 159.003906 309.890625 L 159.453125 309.796875 L 160.359375 309.601562 L 160.808594 309.503906 L 161.261719 309.402344 L 161.710938 309.300781 L 162.617188 309.097656 L 163.066406 308.992188 L 163.519531 308.890625 L 163.96875 308.785156 L 164.421875 308.675781 L 164.875 308.570312 L 165.324219 308.460938 L 165.777344 308.351562 L 166.226562 308.238281 L 166.679688 308.128906 L 167.128906 308.015625 L 167.582031 307.898438 L 168.035156 307.785156 L 168.484375 307.667969 L 168.9375 307.550781 L 169.386719 307.433594 L 170.292969 307.191406 L 170.742188 307.070312 L 171.195312 306.945312 L 171.644531 306.820312 L 172.550781 306.570312 L 173 306.441406 L 173.453125 306.3125 L 173.902344 306.183594 L 174.808594 305.917969 L 175.257812 305.785156 L 175.710938 305.652344 L 176.160156 305.515625 L 176.613281 305.378906 L 177.066406 305.238281 L 177.515625 305.097656 L 177.96875 304.957031 L 178.417969 304.816406 L 179.324219 304.527344 L 179.773438 304.382812 L 180.226562 304.234375 L 180.675781 304.085938 L 181.128906 303.933594 L 181.578125 303.785156 L 182.03125 303.632812 L 182.484375 303.476562 L 182.933594 303.324219 L 183.386719 303.164062 L 183.835938 303.007812 L 184.742188 302.6875 L 185.191406 302.527344 L 185.644531 302.363281 L 186.09375 302.199219 L 186.546875 302.03125 L 187 301.867188 L 187.449219 301.695312 L 187.902344 301.527344 L 188.351562 301.355469 L 188.804688 301.183594 L 189.257812 301.007812 L 189.707031 300.832031 L 190.160156 300.65625 L 190.609375 300.476562 L 191.515625 300.117188 L 191.964844 299.933594 L 192.417969 299.75 L 192.867188 299.5625 L 193.773438 299.1875 L 194.222656 298.996094 L 194.675781 298.804688 L 195.125 298.613281 L 196.03125 298.222656 L 196.480469 298.023438 L 196.933594 297.824219 L 197.382812 297.625 L 197.835938 297.421875 L 198.285156 297.21875 L 198.738281 297.015625 L 199.191406 296.808594 L 199.640625 296.601562 L 200.09375 296.390625 L 200.542969 296.179688 L 200.996094 295.964844 L 201.449219 295.753906 L 201.898438 295.535156 L 202.351562 295.320312 L 202.800781 295.101562 L 203.707031 294.65625 L 204.15625 294.433594 L 204.609375 294.210938 L 205.058594 293.980469 L 205.511719 293.753906 L 205.964844 293.523438 L 206.414062 293.292969 L 206.867188 293.058594 L 207.316406 292.824219 L 207.769531 292.589844 L 208.222656 292.351562 L 208.671875 292.109375 L 209.125 291.871094 L 209.574219 291.625 L 210.027344 291.382812 L 210.480469 291.136719 L 210.929688 290.886719 L 211.382812 290.640625 L 211.832031 290.386719 L 212.285156 290.136719 L 212.738281 289.882812 L 213.1875 289.625 L 213.640625 289.367188 L 214.089844 289.109375 L 214.542969 288.847656 L 214.992188 288.585938 L 215.898438 288.054688 L 216.347656 287.789062 L 216.800781 287.519531 L 217.25 287.25 L 218.15625 286.703125 L 218.605469 286.429688 L 219.058594 286.152344 L 219.507812 285.871094 L 220.414062 285.308594 L 220.863281 285.023438 L 221.316406 284.738281 L 221.765625 284.453125 L 222.21875 284.164062 L 222.671875 283.871094 L 223.121094 283.582031 L 223.574219 283.285156 L 224.023438 282.992188 L 224.476562 282.695312 L 224.929688 282.394531 L 225.378906 282.09375 L 225.832031 281.792969 L 226.28125 281.488281 L 226.734375 281.183594 L 227.1875 280.875 L 227.636719 280.566406 L 228.089844 280.257812 L 228.539062 279.945312 L 228.992188 279.632812 L 229.441406 279.316406 L 229.894531 279 L 230.347656 278.679688 L 230.796875 278.359375 L 231.25 278.039062 L 231.699219 277.714844 L 232.152344 277.390625 L 232.605469 277.0625 L 233.054688 276.734375 L 233.507812 276.40625 L 233.957031 276.074219 L 234.410156 275.742188 L 234.863281 275.40625 L 235.3125 275.070312 L 235.765625 274.730469 L 236.214844 274.390625 L 236.667969 274.050781 L 237.121094 273.707031 L 237.570312 273.363281 L 238.023438 273.019531 L 238.472656 272.671875 L 238.925781 272.320312 L 239.378906 271.972656 L 239.828125 271.617188 L 240.28125 271.265625 L 240.730469 270.910156 L 241.183594 270.554688 L 241.636719 270.195312 L 242.085938 269.835938 L 242.539062 269.472656 L 242.988281 269.109375 L 243.894531 268.382812 L 244.34375 268.011719 L 244.796875 267.644531 L 245.246094 267.273438 L 245.699219 266.902344 L 246.148438 266.53125 L 246.601562 266.15625 L 247.054688 265.777344 L 247.503906 265.402344 L 247.957031 265.023438 L 248.40625 264.640625 L 248.859375 264.261719 L 249.3125 263.878906 L 249.761719 263.492188 L 250.214844 263.105469 L 250.664062 262.71875 L 251.117188 262.332031 L 251.570312 261.941406 L 252.019531 261.550781 L 252.472656 261.15625 L 252.921875 260.761719 L 253.828125 259.972656 L 254.277344 259.574219 L 254.730469 259.175781 L 255.179688 258.773438 L 256.085938 257.96875 L 256.535156 257.566406 L 256.988281 257.160156 L 257.4375 256.753906 L 257.890625 256.34375 L 258.34375 255.9375 L 258.792969 255.527344 L 259.246094 255.113281 L 259.695312 254.703125 L 260.148438 254.289062 L 260.597656 253.875 L 261.050781 253.457031 L 261.503906 253.042969 L 261.953125 252.625 L 262.40625 252.207031 L 262.855469 251.785156 L 263.761719 250.941406 L 264.210938 250.519531 L 264.664062 250.09375 L 265.113281 249.667969 L 266.019531 248.816406 L 266.46875 248.390625 L 266.921875 247.960938 L 267.371094 247.53125 L 267.824219 247.101562 L 268.277344 246.667969 L 268.726562 246.238281 L 269.179688 245.804688 L 269.628906 245.371094 L 270.082031 244.933594 L 270.535156 244.5 L 270.984375 244.0625 L 271.4375 243.625 L 271.886719 243.1875 L 272.792969 242.3125 L 273.242188 241.871094 L 273.695312 241.429688 L 274.144531 240.988281 L 275.050781 240.105469 L 275.5 239.664062 L 275.953125 239.21875 L 276.402344 238.777344 L 276.855469 238.332031 L 277.304688 237.886719 L 278.210938 236.996094 L 278.660156 236.546875 L 279.113281 236.101562 L 279.5625 235.65625 L 280.46875 234.757812 L 280.917969 234.308594 L 281.371094 233.863281 L 281.820312 233.414062 L 282.726562 232.515625 L 283.175781 232.0625 L 283.628906 231.613281 L 284.078125 231.164062 L 284.53125 230.714844 L 285.433594 229.8125 L 285.886719 229.363281 L 286.335938 228.910156 L 286.789062 228.460938 L 287.691406 227.558594 L 288.144531 227.109375 L 288.59375 226.65625 L 289.046875 226.207031 L 289.949219 225.304688 L 290.402344 224.855469 L 290.851562 224.402344 L 291.304688 223.953125 L 291.753906 223.503906 L 292.207031 223.054688 L 293.109375 222.152344 L 293.5625 221.703125 L 294.011719 221.253906 L 294.464844 220.808594 L 294.917969 220.359375 L 295.367188 219.910156 L 295.820312 219.464844 L 296.269531 219.015625 L 297.175781 218.125 L 297.625 217.679688 L 298.078125 217.234375 L 298.527344 216.789062 L 298.980469 216.34375 L 299.433594 215.902344 L 299.882812 215.460938 L 300.335938 215.015625 L 300.785156 214.574219 L 301.238281 214.136719 L 301.691406 213.695312 L 302.140625 213.253906 L 302.59375 212.816406 L 303.042969 212.378906 L 303.496094 211.941406 L 303.949219 211.507812 L 304.398438 211.070312 L 304.851562 210.636719 L 305.300781 210.203125 L 305.753906 209.769531 L 306.207031 209.339844 L 306.65625 208.910156 L 307.109375 208.480469 L 307.558594 208.050781 L 308.011719 207.625 L 308.460938 207.199219 L 309.367188 206.347656 L 309.816406 205.925781 L 310.269531 205.503906 L 310.71875 205.085938 L 311.171875 204.664062 L 311.625 204.246094 L 312.074219 203.832031 L 312.527344 203.417969 L 312.976562 203.003906 L 313.429688 202.589844 L 313.882812 202.179688 L 314.332031 201.769531 L 314.785156 201.363281 L 315.234375 200.953125 L 315.6875 200.550781 L 316.140625 200.144531 L 316.589844 199.746094 L 317.042969 199.34375 L 317.492188 198.945312 L 317.945312 198.546875 L 318.398438 198.152344 L 318.847656 197.757812 L 319.300781 197.367188 L 319.75 196.976562 L 320.203125 196.585938 L 320.65625 196.199219 L 321.105469 195.816406 L 321.558594 195.433594 L 322.007812 195.050781 L 322.914062 194.292969 L 323.363281 193.917969 L 323.816406 193.546875 L 324.265625 193.171875 L 324.71875 192.804688 L 325.167969 192.4375 L 325.621094 192.070312 L 326.074219 191.707031 L 326.523438 191.347656 L 326.976562 190.988281 L 327.425781 190.628906 L 327.878906 190.273438 L 328.332031 189.921875 L 328.78125 189.570312 L 329.234375 189.222656 L 329.683594 188.878906 L 330.589844 188.191406 L 331.039062 187.855469 L 331.492188 187.515625 L 331.941406 187.183594 L 332.394531 186.851562 L 332.847656 186.523438 L 333.296875 186.195312 L 333.75 185.871094 L 334.199219 185.550781 L 334.652344 185.230469 L 335.105469 184.914062 L 335.554688 184.597656 L 336.007812 184.289062 L 336.457031 183.976562 L 337.363281 183.367188 L 337.8125 183.066406 L 338.265625 182.769531 L 338.714844 182.472656 L 339.167969 182.179688 L 339.617188 181.890625 L 340.070312 181.601562 L 340.523438 181.320312 L 340.972656 181.035156 L 341.425781 180.757812 L 341.875 180.480469 L 342.328125 180.210938 L 342.78125 179.9375 L 343.230469 179.671875 L 343.683594 179.40625 L 344.132812 179.144531 L 344.585938 178.886719 L 345.039062 178.632812 L 345.488281 178.378906 L 345.941406 178.128906 L 346.390625 177.882812 L 346.84375 177.640625 L 347.296875 177.402344 L 347.746094 177.164062 L 348.199219 176.929688 L 348.648438 176.699219 L 349.554688 176.246094 L 350.003906 176.027344 L 350.457031 175.808594 L 350.90625 175.59375 L 351.8125 175.171875 L 352.261719 174.96875 L 352.714844 174.765625 L 353.164062 174.566406 L 353.617188 174.371094 L 354.070312 174.179688 L 354.519531 173.992188 L 354.972656 173.804688 L 355.421875 173.625 L 355.875 173.445312 L 356.324219 173.269531 L 356.777344 173.097656 L 357.230469 172.929688 L 357.679688 172.765625 L 358.132812 172.605469 L 358.582031 172.445312 L 359.488281 172.140625 L 359.9375 171.992188 L 360.390625 171.851562 L 360.839844 171.710938 L 361.746094 171.4375 L 362.195312 171.308594 L 362.648438 171.183594 L 363.097656 171.058594 L 364.003906 170.824219 L 364.453125 170.714844 L 364.90625 170.605469 L 365.355469 170.5 L 365.808594 170.398438 L 366.261719 170.300781 L 366.710938 170.207031 L 367.164062 170.117188 L 367.613281 170.03125 L 368.066406 169.945312 L 368.519531 169.867188 L 368.96875 169.792969 L 369.421875 169.71875 L 369.871094 169.652344 L 370.324219 169.585938 L 370.773438 169.523438 L 371.679688 169.414062 L 372.128906 169.363281 L 372.582031 169.316406 L 373.03125 169.273438 L 373.484375 169.234375 L 373.9375 169.199219 L 374.386719 169.167969 L 374.839844 169.140625 L 375.289062 169.117188 L 376.195312 169.078125 L 376.644531 169.066406 L 377.097656 169.058594 L 377.546875 169.050781 L 378.453125 169.050781 L 378.902344 169.058594 L 379.355469 169.066406 L 379.804688 169.078125 L 380.710938 169.117188 L 381.160156 169.140625 L 381.613281 169.167969 L 382.0625 169.199219 L 382.515625 169.234375 L 382.96875 169.273438 L 383.417969 169.316406 L 383.871094 169.363281 L 384.320312 169.414062 L 385.226562 169.523438 L 385.675781 169.585938 L 386.128906 169.652344 L 386.578125 169.71875 L 387.03125 169.792969 L 387.480469 169.867188 L 387.933594 169.945312 L 388.386719 170.03125 L 388.835938 170.117188 L 389.289062 170.207031 L 389.738281 170.300781 L 390.191406 170.398438 L 390.644531 170.5 L 391.09375 170.605469 L 391.546875 170.714844 L 391.996094 170.824219 L 392.902344 171.058594 L 393.351562 171.183594 L 393.804688 171.308594 L 394.253906 171.4375 L 395.160156 171.710938 L 395.609375 171.851562 L 396.0625 171.992188 L 396.511719 172.140625 L 397.417969 172.445312 L 397.867188 172.605469 L 398.320312 172.765625 L 398.769531 172.929688 L 399.222656 173.097656 L 399.675781 173.269531 L 400.125 173.445312 L 400.578125 173.625 L 401.027344 173.804688 L 401.480469 173.992188 L 401.929688 174.179688 L 402.382812 174.371094 L 402.835938 174.566406 L 403.285156 174.765625 L 403.738281 174.96875 L 404.1875 175.171875 L 405.09375 175.59375 L 405.542969 175.808594 L 405.996094 176.027344 L 406.445312 176.246094 L 407.351562 176.699219 L 407.800781 176.929688 L 408.253906 177.164062 L 408.703125 177.402344 L 409.15625 177.640625 L 409.609375 177.882812 L 410.058594 178.128906 L 410.511719 178.378906 L 410.960938 178.632812 L 411.414062 178.886719 L 411.867188 179.144531 L 412.316406 179.40625 L 412.769531 179.671875 L 413.21875 179.9375 L 413.671875 180.210938 L 414.125 180.480469 L 414.574219 180.757812 L 415.027344 181.035156 L 415.476562 181.320312 L 415.929688 181.601562 L 416.382812 181.890625 L 416.832031 182.179688 L 417.285156 182.472656 L 417.734375 182.769531 L 418.1875 183.066406 L 418.636719 183.367188 L 419.542969 183.976562 L 419.992188 184.289062 L 420.445312 184.597656 L 420.894531 184.914062 L 421.347656 185.230469 L 421.800781 185.550781 L 422.25 185.871094 L 422.703125 186.195312 L 423.152344 186.523438 L 423.605469 186.851562 L 424.058594 187.183594 L 424.507812 187.515625 L 424.960938 187.855469 L 425.410156 188.191406 L 426.316406 188.878906 L 426.765625 189.222656 L 427.21875 189.570312 L 427.667969 189.921875 L 428.121094 190.273438 L 428.574219 190.628906 L 429.023438 190.988281 L 429.476562 191.347656 L 429.925781 191.707031 L 430.378906 192.070312 L 430.832031 192.4375 L 431.28125 192.804688 L 431.734375 193.171875 L 432.183594 193.546875 L 432.636719 193.917969 L 433.085938 194.292969 L 433.992188 195.050781 L 434.441406 195.433594 L 434.894531 195.816406 L 435.34375 196.199219 L 435.796875 196.585938 L 436.25 196.976562 L 436.699219 197.367188 L 437.152344 197.757812 L 437.601562 198.152344 L 438.054688 198.546875 L 438.507812 198.945312 L 438.957031 199.34375 L 439.410156 199.746094 L 439.859375 200.144531 L 440.3125 200.550781 L 440.765625 200.953125 L 441.214844 201.363281 L 441.667969 201.769531 L 442.117188 202.179688 L 442.570312 202.589844 L 443.023438 203.003906 L 443.472656 203.417969 L 443.925781 203.832031 L 444.375 204.246094 L 444.828125 204.664062 L 445.28125 205.085938 L 445.730469 205.503906 L 446.183594 205.925781 L 446.632812 206.347656 L 447.539062 207.199219 L 447.988281 207.625 L 448.441406 208.050781 L 448.890625 208.480469 L 449.34375 208.910156 L 449.792969 209.339844 L 450.246094 209.769531 L 450.699219 210.203125 L 451.148438 210.636719 L 451.601562 211.070312 L 452.050781 211.507812 L 452.503906 211.941406 L 452.957031 212.378906 L 453.40625 212.816406 L 453.859375 213.253906 L 454.308594 213.695312 L 454.761719 214.136719 L 455.214844 214.574219 L 455.664062 215.015625 L 456.117188 215.460938 L 456.566406 215.902344 L 457.019531 216.34375 L 457.472656 216.789062 L 457.921875 217.234375 L 458.375 217.679688 L 458.824219 218.125 L 459.730469 219.015625 L 460.179688 219.464844 L 460.632812 219.910156 L 461.082031 220.359375 L 461.535156 220.808594 L 461.988281 221.253906 L 462.4375 221.703125 L 462.890625 222.152344 L 463.792969 223.054688 L 464.246094 223.503906 L 464.695312 223.953125 L 465.148438 224.402344 L 465.597656 224.855469 L 466.050781 225.304688 L 466.953125 226.207031 L 467.40625 226.65625 L 467.855469 227.109375 L 468.308594 227.558594 L 469.210938 228.460938 L 469.664062 228.910156 L 470.113281 229.363281 L 470.566406 229.8125 L 471.46875 230.714844 L 471.921875 231.164062 L 472.371094 231.613281 L 472.824219 232.0625 L 473.273438 232.515625 L 474.179688 233.414062 L 474.628906 233.863281 L 475.082031 234.308594 L 475.53125 234.757812 L 476.4375 235.65625 L 476.886719 236.101562 L 477.339844 236.546875 L 477.789062 236.996094 L 478.695312 237.886719 L 479.144531 238.332031 L 479.597656 238.777344 L 480.046875 239.21875 L 480.5 239.664062 L 480.949219 240.105469 L 481.855469 240.988281 L 482.304688 241.429688 L 482.757812 241.871094 L 483.207031 242.3125 L 484.113281 243.1875 L 484.5625 243.625 L 485.015625 244.0625 L 485.464844 244.5 L 485.917969 244.933594 L 486.371094 245.371094 L 486.820312 245.804688 L 487.273438 246.238281 L 487.722656 246.667969 L 488.175781 247.101562 L 488.628906 247.53125 L 489.078125 247.960938 L 489.53125 248.390625 L 489.980469 248.816406 L 490.886719 249.667969 L 491.335938 250.09375 L 491.789062 250.519531 L 492.238281 250.941406 L 493.144531 251.785156 L 493.59375 252.207031 L 494.046875 252.625 L 494.496094 253.042969 L 494.949219 253.457031 L 495.402344 253.875 L 495.851562 254.289062 L 496.304688 254.703125 L 496.753906 255.113281 L 497.207031 255.527344 L 497.65625 255.9375 L 498.109375 256.34375 L 498.5625 256.753906 L 499.011719 257.160156 L 499.464844 257.566406 L 499.914062 257.96875 L 500.820312 258.773438 L 501.269531 259.175781 L 501.722656 259.574219 L 502.171875 259.972656 L 503.078125 260.761719 L 503.527344 261.15625 L 503.980469 261.550781 L 504.429688 261.941406 L 504.882812 262.332031 L 505.335938 262.71875 L 505.785156 263.105469 L 506.238281 263.492188 L 506.6875 263.878906 L 507.140625 264.261719 L 507.59375 264.640625 L 508.042969 265.023438 L 508.496094 265.402344 L 508.945312 265.777344 L 509.398438 266.15625 L 509.851562 266.53125 L 510.300781 266.902344 L 510.753906 267.273438 L 511.203125 267.644531 L 511.65625 268.011719 L 512.105469 268.382812 L 513.011719 269.109375 L 513.460938 269.472656 L 513.914062 269.835938 L 514.363281 270.195312 L 514.816406 270.554688 L 515.269531 270.910156 L 515.71875 271.265625 L 516.171875 271.617188 L 516.621094 271.972656 L 517.074219 272.320312 L 517.527344 272.671875 L 517.976562 273.019531 L 518.429688 273.363281 L 518.878906 273.707031 L 519.332031 274.050781 L 519.785156 274.390625 L 520.234375 274.730469 L 520.6875 275.070312 L 521.136719 275.40625 L 521.589844 275.742188 L 522.042969 276.074219 L 522.492188 276.40625 L 522.945312 276.734375 L 523.394531 277.0625 L 523.847656 277.390625 L 524.300781 277.714844 L 524.75 278.039062 L 525.203125 278.359375 L 525.652344 278.679688 L 526.105469 279 L 526.558594 279.316406 L 527.007812 279.632812 L 527.460938 279.945312 L 527.910156 280.257812 L 528.363281 280.566406 L 528.8125 280.875 L 529.265625 281.183594 L 529.71875 281.488281 L 530.167969 281.792969 L 530.621094 282.09375 L 531.070312 282.394531 L 531.523438 282.695312 L 531.976562 282.992188 L 532.425781 283.285156 L 532.878906 283.582031 L 533.328125 283.871094 L 533.78125 284.164062 L 534.234375 284.453125 L 534.683594 284.738281 L 535.136719 285.023438 L 535.585938 285.308594 L 536.492188 285.871094 L 536.941406 286.152344 L 537.394531 286.429688 L 537.84375 286.703125 L 538.75 287.25 L 539.199219 287.519531 L 539.652344 287.789062 L 540.101562 288.054688 L 541.007812 288.585938 L 541.457031 288.847656 L 541.910156 289.109375 L 542.359375 289.367188 L 542.8125 289.625 L 543.261719 289.882812 L 543.714844 290.136719 L 544.167969 290.386719 L 544.617188 290.640625 L 545.070312 290.886719 L 545.519531 291.136719 L 545.972656 291.382812 L 546.425781 291.625 L 546.875 291.871094 L 547.328125 292.109375 L 547.777344 292.351562 L 548.230469 292.589844 L 548.683594 292.824219 L 549.132812 293.058594 L 549.585938 293.292969 L 550.035156 293.523438 L 550.488281 293.753906 L 550.941406 293.980469 L 551.390625 294.210938 L 551.84375 294.433594 L 552.292969 294.65625 L 553.199219 295.101562 L 553.648438 295.320312 L 554.101562 295.535156 L 554.550781 295.753906 L 555.003906 295.964844 L 555.457031 296.179688 L 555.90625 296.390625 L 556.359375 296.601562 L 556.808594 296.808594 L 557.261719 297.015625 L 557.714844 297.21875 L 558.164062 297.421875 L 558.617188 297.625 L 559.066406 297.824219 L 559.519531 298.023438 L 559.96875 298.222656 L 560.875 298.613281 L 561.324219 298.804688 L 561.777344 298.996094 L 562.226562 299.1875 L 563.132812 299.5625 L 563.582031 299.75 L 564.035156 299.933594 L 564.484375 300.117188 L 565.390625 300.476562 L 565.839844 300.65625 L 566.292969 300.832031 L 566.742188 301.007812 L 567.195312 301.183594 L 567.648438 301.355469 L 568.097656 301.527344 L 568.550781 301.695312 L 569 301.867188 L 569.453125 302.03125 L 569.90625 302.199219 L 570.355469 302.363281 L 570.808594 302.527344 L 571.257812 302.6875 L 572.164062 303.007812 L 572.613281 303.164062 L 573.066406 303.324219 L 573.515625 303.476562 L 573.96875 303.632812 L 574.421875 303.785156 L 574.871094 303.933594 L 575.324219 304.085938 L 575.773438 304.234375 L 576.226562 304.382812 L 576.675781 304.527344 L 577.582031 304.816406 L 578.03125 304.957031 L 578.484375 305.097656 L 578.933594 305.238281 L 579.386719 305.378906 L 579.839844 305.515625 L 580.289062 305.652344 L 580.742188 305.785156 L 581.191406 305.917969 L 582.097656 306.183594 L 582.546875 306.3125 L 583 306.441406 L 583.449219 306.570312 L 584.355469 306.820312 L 584.804688 306.945312 L 585.257812 307.070312 L 585.707031 307.191406 L 586.613281 307.433594 L 587.0625 307.550781 L 587.515625 307.667969 L 587.964844 307.785156 L 588.417969 307.898438 L 588.871094 308.015625 L 589.320312 308.128906 L 589.773438 308.238281 L 590.222656 308.351562 L 590.675781 308.460938 L 591.125 308.570312 L 591.578125 308.675781 L 592.03125 308.785156 L 592.480469 308.890625 L 592.933594 308.992188 L 593.382812 309.097656 L 594.289062 309.300781 L 594.738281 309.402344 L 595.191406 309.503906 L 595.640625 309.601562 L 596.546875 309.796875 L 596.996094 309.890625 L 597.449219 309.984375 L 597.898438 310.078125 L 598.804688 310.265625 L 599.253906 310.355469 L 599.707031 310.445312 L 600.15625 310.535156 L 600.609375 310.625 L 601.0625 310.710938 L 601.511719 310.796875 L 601.964844 310.882812 L 602.414062 310.96875 L 603.320312 311.132812 L 603.769531 311.214844 L 604.222656 311.296875 L 604.671875 311.378906 L 605.578125 311.535156 L 606.027344 311.613281 L 606.480469 311.691406 L 606.929688 311.765625 L 607.382812 311.84375 L 607.832031 311.917969 L 608.285156 311.992188 L 608.738281 312.0625 L 609.1875 312.136719 L 609.640625 312.207031 L 610.089844 312.277344 L 610.996094 312.417969 L 611.445312 312.484375 L 611.898438 312.554688 L 612.347656 312.621094 L 613.253906 312.753906 L 613.703125 312.816406 L 614.15625 312.882812 L 614.605469 312.945312 L 615.511719 313.070312 L 615.960938 313.128906 L 616.414062 313.191406 L 616.863281 313.25 L 617.769531 313.367188 L 618.21875 313.425781 L 618.671875 313.484375 L 619.121094 313.539062 L 619.574219 313.59375 L 620.027344 313.652344 L 620.476562 313.707031 L 620.929688 313.757812 L 621.378906 313.8125 L 621.832031 313.867188 L 622.28125 313.917969 L 623.1875 314.019531 L 623.636719 314.070312 L 624.089844 314.121094 L 624.539062 314.167969 L 624.992188 314.21875 L 625.445312 314.265625 L 625.894531 314.3125 L 626.347656 314.359375 L 626.796875 314.40625 L 627.25 314.453125 L 627.703125 314.496094 L 628.152344 314.542969 L 628.605469 314.585938 L 629.054688 314.628906 L 629.960938 314.714844 L 630.410156 314.757812 L 630.863281 314.800781 L 631.3125 314.839844 L 631.765625 314.882812 L 632.21875 314.921875 L 632.667969 314.960938 L 633.121094 315 L 633.570312 315.039062 L 634.023438 315.078125 L 634.476562 315.113281 L 634.925781 315.152344 L 635.378906 315.1875 L 635.828125 315.222656 L 636.28125 315.261719 L 636.734375 315.296875 L 637.183594 315.332031 L 637.636719 315.363281 L 638.085938 315.398438 L 638.539062 315.433594 L 638.988281 315.464844 L 639.441406 315.5 L 639.894531 315.53125 L 640.34375 315.5625 L 640.796875 315.59375 L 641.246094 315.625 L 642.152344 315.6875 L 642.601562 315.71875 L 643.054688 315.746094 L 643.503906 315.777344 L 644.410156 315.832031 L 644.859375 315.859375 L 645.3125 315.890625 L 645.761719 315.917969 L 646.214844 315.941406 L 646.667969 315.96875 L 647.117188 315.996094 L 647.570312 316.023438 L 648.019531 316.046875 L 648.472656 316.074219 L 648.925781 316.097656 L 649.375 316.121094 L 649.828125 316.148438 L 650.277344 316.171875 L 651.183594 316.21875 L 651.632812 316.242188 L 652.085938 316.261719 L 652.535156 316.285156 L 652.988281 316.308594 L 653.4375 316.328125 L 653.890625 316.351562 L 654.34375 316.371094 L 654.792969 316.394531 L 655.246094 316.414062 L 655.695312 316.433594 L 656.601562 316.472656 L 657.050781 316.492188 L 657.503906 316.511719 L 657.953125 316.53125 L 658.859375 316.570312 L 659.308594 316.585938 L 659.761719 316.605469 L 660.210938 316.625 L 661.117188 316.65625 L 661.566406 316.675781 L 662.019531 316.691406 L 662.46875 316.707031 L 662.921875 316.722656 L 663.375 316.742188 L 663.824219 316.757812 L 664.277344 316.773438 L 664.726562 316.789062 L 665.179688 316.800781 L 665.632812 316.816406 L 666.082031 316.832031 L 666.535156 316.847656 L 666.984375 316.859375 L 667.890625 316.890625 L 668.339844 316.902344 L 668.792969 316.917969 L 669.242188 316.929688 L 669.695312 316.941406 L 670.144531 316.957031 L 671.050781 316.980469 L 671.5 316.992188 L 671.953125 317.003906 L 672.402344 317.019531 L 673.308594 317.042969 L 673.757812 317.050781 L 674.210938 317.0625 L 674.660156 317.074219 L 675.566406 317.097656 L 676.015625 317.109375 L 676.46875 317.117188 L 676.917969 317.128906 L 677.371094 317.140625 L 677.824219 317.148438 L 678.273438 317.160156 L 678.726562 317.167969 L 679.175781 317.179688 L 680.082031 317.195312 L 680.53125 317.207031 L 680.984375 317.214844 L 681.433594 317.222656 L 681.886719 317.234375 L 682.339844 317.242188 L 682.789062 317.25 L 683.242188 317.257812 L 683.691406 317.265625 L 684.144531 317.273438 L 684.59375 317.28125 L 685.5 317.296875 L 685.949219 317.304688 L 686.402344 317.3125 L 686.851562 317.320312 L 687.757812 317.335938 L 688.207031 317.34375 L 688.660156 317.347656 L 689.109375 317.355469 L 690.015625 317.371094 L 690.464844 317.375 L 690.917969 317.382812 L 691.367188 317.386719 L 692.273438 317.402344 L 692.722656 317.40625 L 693.175781 317.414062 L 693.625 317.417969 L 694.078125 317.425781 L 694.53125 317.429688 L 694.980469 317.4375 L 695.433594 317.441406 L 695.882812 317.445312 L 696.335938 317.453125 L 696.789062 317.457031 L 697.238281 317.460938 L 697.691406 317.46875 L 698.140625 317.472656 L 699.046875 317.480469 L 699.496094 317.488281 L 699.949219 317.492188 L 700.398438 317.496094 L 700.851562 317.5 L 701.300781 317.503906 L 702.207031 317.511719 L 702.65625 317.515625 L 703.109375 317.523438 L 703.558594 317.527344 L 704.464844 317.535156 L 704.914062 317.539062 L 705.367188 317.542969 L 705.816406 317.546875 L 706.269531 317.546875 L 706.722656 317.550781 L 707.171875 317.554688 L 707.625 317.558594 L 708.074219 317.5625 L 708.980469 317.570312 L 709.429688 317.574219 L 709.882812 317.574219 L 710.332031 317.578125 L 711.238281 317.585938 L 711.6875 317.589844 L 712.140625 317.589844 L 712.589844 317.59375 L 713.496094 317.601562 L 713.945312 317.601562 L 714.398438 317.605469 L 714.847656 317.609375 L 715.300781 317.609375 L 715.753906 317.613281 L 716.203125 317.617188 L 716.65625 317.617188 L 716.65625 317.75 L 39.34375 317.75 Z M 39.34375 317.617188 "/>
<g clip-path="url(#clip-0)">
<path fill="none" stroke-width="1.066978" stroke-linecap="butt" stroke-linejoin="round" stroke="rgb(0%, 0%, 0%)" stroke-opacity="1" stroke-miterlimit="10" d="M 5.480469 317.75 L 750.519531 317.75 "/>
</g>
<g clip-path="url(#clip-1)">
<path fill="none" stroke-width="2.133957" stroke-linecap="butt" stroke-linejoin="round" stroke="rgb(0%, 0%, 0%)" stroke-opacity="1" stroke-dasharray="8.535827 8.535827" stroke-miterlimit="10" d="M 378 332.621094 L 378 5.480469 "/>
</g>
<g fill="rgb(30.196078%, 30.196078%, 30.196078%)" fill-opacity="1">
<use xlink:href="#glyph-0-0" x="372" y="348.3125"/>
</g>
</svg>
